<svg width="54" height="68" viewBox="0 0 54 68" fill="none" xmlns="http://www.w3.org/2000/svg">
<path d="M17 37.3333H37C37.9444 37.3333 38.7361 37.0139 39.375 36.375C40.0139 35.7361 40.3333 34.9444 40.3333 34C40.3333 33.0556 40.0139 32.2639 39.375 31.625C38.7361 30.9861 37.9444 30.6667 37 30.6667H17C16.0555 30.6667 15.2639 30.9861 14.625 31.625C13.9861 32.2639 13.6666 33.0556 13.6666 34C13.6666 34.9444 13.9861 35.7361 14.625 36.375C15.2639 37.0139 16.0555 37.3333 17 37.3333ZM17 47.3333H37C37.9444 47.3333 38.7361 47.0139 39.375 46.375C40.0139 45.7361 40.3333 44.9444 40.3333 44C40.3333 43.0556 40.0139 42.2639 39.375 41.625C38.7361 40.9861 37.9444 40.6667 37 40.6667H17C16.0555 40.6667 15.2639 40.9861 14.625 41.625C13.9861 42.2639 13.6666 43.0556 13.6666 44C13.6666 44.9444 13.9861 45.7361 14.625 46.375C15.2639 47.0139 16.0555 47.3333 17 47.3333ZM17 57.3333H27C27.9444 57.3333 28.7361 57.0139 29.375 56.375C30.0139 55.7361 30.3333 54.9444 30.3333 54C30.3333 53.0556 30.0139 52.2639 29.375 51.625C28.7361 50.9861 27.9444 50.6667 27 50.6667H17C16.0555 50.6667 15.2639 50.9861 14.625 51.625C13.9861 52.2639 13.6666 53.0556 13.6666 54C13.6666 54.9444 13.9861 55.7361 14.625 56.375C15.2639 57.0139 16.0555 57.3333 17 57.3333ZM6.99998 67.3333C5.16665 67.3333 3.5972 66.6806 2.29165 65.375C0.986091 64.0694 0.333313 62.5 0.333313 60.6667V7.33334C0.333313 5.5 0.986091 3.93056 2.29165 2.62501C3.5972 1.31945 5.16665 0.666672 6.99998 0.666672H30.9166C31.8055 0.666672 32.6528 0.833338 33.4583 1.16667C34.2639 1.50001 34.9722 1.97223 35.5833 2.58334L51.75 18.75C52.3611 19.3611 52.8333 20.0694 53.1666 20.875C53.5 21.6806 53.6666 22.5278 53.6666 23.4167V60.6667C53.6666 62.5 53.0139 64.0694 51.7083 65.375C50.4028 66.6806 48.8333 67.3333 47 67.3333H6.99998ZM47 24H35.3333C33.9444 24 32.7639 23.5139 31.7916 22.5417C30.8194 21.5694 30.3333 20.3889 30.3333 19V7.33334H6.99998V60.6667H47V24Z" fill="#4D406E"/>
</svg>
